<svg width="1528" height="1528" viewBox="0 0 1528 1528" fill="none" xmlns="http://www.w3.org/2000/svg">
<circle cx="764" cy="764" r="764" fill="white"/>
<path d="M776.547 325.728V1337.13H819.584V398.221C923.366 441.372 996.318 542.748 996.318 661.372C996.318 765.384 944.111 851.63 860.1 901.43V964.811C972.249 908.135 1053.62 794.438 1053.62 661.315C1053.68 495.527 934.77 357.132 776.547 325.728ZM581.762 601.086L567.779 583.092C504.512 634.496 457.521 706.129 437.406 792.49C397.12 965.097 477.693 1155.24 662.621 1235.18L668.237 1208.08C506.231 1147.79 420.787 960.455 458.896 797.361C477.865 715.642 521.532 649.453 581.762 601.086ZM393.739 783.493C423.825 654.496 508.18 552.662 615.744 497.934L587.435 459.137C470.128 520.341 378.495 631.688 345.601 772.49C286.976 1024.12 438.495 1273.35 684.054 1329.51C707.149 1334.78 721.074 1335.47 744.054 1337.13V1291.63C722.507 1290.37 716.203 1289.57 694.541 1284.47C475.515 1234.55 340.787 1010.08 393.739 783.493ZM1076.32 654.61C1076.32 738.45 1047.72 815.355 1000.1 875.871L1018.32 888.708C1068.35 824.582 1098.32 743.092 1098.32 654.668C1098.32 477.877 979.183 329.911 819.126 290.37L819.068 313.521C967.206 352.261 1076.32 490.14 1076.32 654.61ZM739.641 191C716.031 191 692.593 192.948 669.899 196.387L674.14 242.691C695.458 239.023 717.406 237.189 739.641 237.189C964.054 237.189 1145.89 425.728 1145.89 658.163C1145.89 794.037 1083.77 914.897 987.263 991.859L1023.83 1023.21C1128.12 937.762 1195 805.842 1195 658.163C1195.06 400.112 991.16 191 739.641 191ZM706.002 618.278L671.79 571.286C580.673 614.839 509.67 697.476 485.2 802.576C448.065 961.716 529.784 1120.86 672.879 1188.36L685.2 1130.6C573.624 1071.29 511.389 943.378 541.131 815.355C562.449 724.123 625.716 653.349 706.002 618.278Z" fill="#034EA2"/>
</svg>
